<?xml version="1.0" encoding="iso-8859-1"?>
<!-- Generator: Adobe Illustrator 21.1.0, SVG Export Plug-In . SVG Version: 6.00 Build 0)  -->
<svg version="1.1" id="Layer_1" xmlns="http://www.w3.org/2000/svg" xmlns:xlink="http://www.w3.org/1999/xlink" x="0px" y="0px"
	 viewBox="0 0 24 24" enable-background="new 0 0 24 24" xml:space="preserve">
<g>
	<path fill="#303C42" d="M17.1377182,15.844245c0.0966797,0.1020508,0.2285156,0.1557627,0.3623047,0.1557627
		c0.0761719,0,0.1523438-0.0170908,0.2236328-0.0527353l2-1c0.2104492-0.1054688,0.3188477-0.3427734,0.2607422-0.5708008
		l-1.4654541-5.7399902c1.7158203-1.3875122,2.7207031-2.3963623,3.163208-2.8415527
		c0.6103516-0.6147461,1.8276367-2.4799802,1.0771484-3.2358396c-0.2739277-0.2752748-1.0961018-0.556838-2.2594738-0.559082
		c-1.3665829-0.0026361-3.2039719,0.3775647-5.1765614,1.5678711l-0.0004883,0.0004883
		c-0.6591797,0.3989258-1.1337891,0.7543943-1.9956055,1.4316404H4.0000229c-0.1347659,0-0.2641604,0.0546875-0.3583987,0.1508789
		l-1.7045898,1.75C1.8174055,7.0244207,1.7690656,7.2006903,1.809593,7.3676825s0.1635742,0.3017578,0.3266602,0.3564453
		l5.6323242,1.8896484c-0.8515625,0.7475586-1.6777344,1.4848633-2.4375,2.168457l-3.5732424-1.3837891
		c-0.1894531-0.0722656-0.4038086-0.0253906-0.543457,0.1220703l-1.0771484,1.1352539
		c-0.1708984,0.1801758-0.1835938,0.4580078-0.0302734,0.6533203l1.965332,2.4990234
		c-0.1479492,0.2207031-0.2299805,0.4790039-0.2358398,0.7519531c-0.0083008,0.3867188,0.1367188,0.7509775,0.409668,1.0258799
		c0.2680664,0.2700195,0.6274414,0.4140625,0.9936523,0.4135742c0.1699219,0,0.3408203-0.0307617,0.5053711-0.0947266
		c1.473511-0.5737915,6.2897949-2.519166,9.8846436-4.7523813L17.1377182,15.844245z"/>
	<path fill="#15B9D5" d="M18.9160385,14.2329168l-1.3085938,0.6542969l-3.1234741-3.2868652
		c1.2338867-0.8300781,2.2762451-1.5933838,3.1754761-2.2888794L18.9160385,14.2329168z"/>
	<path opacity="0.1" fill="#010101" d="M17.8440781,10.0346746l-0.1846313-0.7232056
		c-0.899231,0.6954956-1.9415894,1.4588013-3.1754761,2.2888794l0.4798584,0.5049438
		C16.0677719,11.3601141,17.014061,10.670661,17.8440781,10.0346746z"/>
	<path fill="#15B9D5" d="M3.3823469,15.9731512c-0.1503906,0.0576181-0.3134766,0.0219727-0.4267578-0.0917969
		c-0.0795898-0.0800781-0.121582-0.1865234-0.1191406-0.2993164c0.0024414-0.1123047,0.0488281-0.2163086,0.1308594-0.2919922
		l-0.0126953-0.0136719c0.0253906-0.0131836,0.050293-0.0283203,0.0737305-0.0463867l-0.0800781-0.1069336l0.1191406,0.074707
		c0.1958008-0.1806641,0.2148438-0.4819336,0.0444336-0.6870117c-0.0043945-0.0053711-0.0092773-0.0107422-0.0136719-0.015625
		l-1.9379883-2.4643555l0.5488281-0.5786133l3.3652346,1.3027344c0.1879883,0.1713867,0.4785156,0.1733398,0.6704102,0.0009766
		c1.0146484-0.9150391,2.1621094-1.9389648,3.3369141-2.9619141c0.1352539-0.1176758,0.1972656-0.2988281,0.1621094-0.4746094
		c-0.034668-0.1757813-0.1611328-0.3193359-0.3310547-0.3764648L3.2085187,7.0288153l1.0024416-1.0288086h9.2890625
		c0.1123047,0,0.2211914-0.0375977,0.309082-0.1069336c1.0053711-0.7915039,1.4165039-1.097168,2.03125-1.4692383
		l-0.0004883,0.0004883c3.2265625-1.9482419,5.6865234-1.3989255,6.1611328-1.1816404
		c-0.0180664,0.3212891-0.4433594,1.2583005-1.0288086,1.8471677c-0.7016602,0.7070313-2.8374023,2.8569336-7.1054688,5.7216797
		C10.3125172,13.196784,4.942894,15.3652411,3.3823469,15.9731512z"/>
	<path opacity="0.2" fill="#FFFFFF" d="M4.2109604,6.6250067h9.2890625c0.1123047,0,0.2211914-0.0375977,0.309082-0.1069336
		c1.0053711-0.7915039,1.4165039-1.097168,2.03125-1.4692383l-0.0004883,0.0004883
		c2.9430542-1.7770383,5.2429199-1.4763792,5.9855347-1.2448728c0.105835-0.2388916,0.1688843-0.4428101,0.1755981-0.5617676
		c-0.4746094-0.2172852-2.9345703-0.7666016-6.1611328,1.1816404l0.0004883-0.0004883
		c-0.6147461,0.3720703-1.0258789,0.6777344-2.03125,1.4692383c-0.0878906,0.0693359-0.1967773,0.1069336-0.309082,0.1069336
		H4.2109604L3.2085187,7.0288153L3.6674421,7.182807L4.2109604,6.6250067z"/>
	<path fill="#303C42" d="M23.5000229,21.0000076h-15c-0.2763672,0-0.5,0.2236328-0.5,0.5s0.2236328,0.5,0.5,0.5h15
		c0.2763672,0,0.5-0.2236328,0.5-0.5S23.7763901,21.0000076,23.5000229,21.0000076z"/>
	<linearGradient id="SVGID_1_" gradientUnits="userSpaceOnUse" x1="2.2992229" y1="6.0587907" x2="26.0810871" y2="17.1484566">
		<stop  offset="0" style="stop-color:#FFFFFF;stop-opacity:0.2"/>
		<stop  offset="1" style="stop-color:#FFFFFF;stop-opacity:0"/>
	</linearGradient>
	<path fill="url(#SVGID_1_)" d="M17.1377182,15.844245c0.0966797,0.1020508,0.2285156,0.1557627,0.3623047,0.1557627
		c0.0761719,0,0.1523438-0.0170908,0.2236328-0.0527353l2-1c0.2104492-0.1054688,0.3188477-0.3427734,0.2607422-0.5708008
		l-1.4654541-5.7399902c1.7158203-1.3875122,2.7207031-2.3963623,3.163208-2.8415527
		c0.6103516-0.6147461,1.8276367-2.4799802,1.0771484-3.2358396c-0.2739258-0.2752686-1.0961304-0.5568237-2.2594604-0.559082
		c-1.3665771-0.0026246-3.2039795,0.3775635-5.1765747,1.5678711l-0.0004883,0.0004883
		c-0.6591797,0.3989258-1.1337891,0.7543943-1.9956055,1.4316404H4.0000229c-0.1347659,0-0.2641604,0.0546875-0.3583987,0.1508789
		l-1.7045898,1.75C1.8174055,7.0244207,1.7690656,7.2006903,1.809593,7.3676825s0.1635742,0.3017578,0.3266602,0.3564453
		l5.6323242,1.8896484c-0.8515625,0.7475586-1.6777344,1.4848633-2.4375,2.168457l-3.5732424-1.3837891
		c-0.1894531-0.0722656-0.4038086-0.0253906-0.543457,0.1220703l-1.0771484,1.1352539
		c-0.1708984,0.1801758-0.1835938,0.4580078-0.0302734,0.6533203l1.965332,2.4990234
		c-0.1479492,0.2207031-0.2299805,0.4790039-0.2358398,0.7519531c-0.0083008,0.3867188,0.1367188,0.7509775,0.409668,1.0258799
		c0.2680664,0.2700195,0.6274414,0.4140625,0.9936523,0.4135742c0.1699219,0,0.3408203-0.0307617,0.5053711-0.0947266
		c1.473511-0.5737915,6.2897949-2.519166,9.8846436-4.7523813L17.1377182,15.844245z M23.5000229,21.0000076h-15
		c-0.2763672,0-0.5,0.2236328-0.5,0.5s0.2236328,0.5,0.5,0.5h15c0.2763672,0,0.5-0.2236328,0.5-0.5
		S23.7763901,21.0000076,23.5000229,21.0000076z"/>
</g>
<g>
</g>
<g>
</g>
<g>
</g>
<g>
</g>
<g>
</g>
<g>
</g>
<g>
</g>
<g>
</g>
<g>
</g>
<g>
</g>
<g>
</g>
<g>
</g>
<g>
</g>
<g>
</g>
<g>
</g>
</svg>
